<svg xmlns="http://www.w3.org/2000/svg" width="32" height="32" viewBox="0 0 32 32">
  <g id="Group_2" data-name="Group 2" transform="translate(386 -39)">
    <rect id="Rectangle_7" data-name="Rectangle 7" width="32" height="32" transform="translate(-386 39)" fill="none"/>
    <g id="instagram-logo-svgrepo-com" transform="translate(-381 44)">
      <path id="Path_9" data-name="Path 9" d="M15.929,0H6.071A6.078,6.078,0,0,0,0,6.071v9.858A6.078,6.078,0,0,0,6.071,22h9.858A6.078,6.078,0,0,0,22,15.929V6.071A6.078,6.078,0,0,0,15.929,0Zm4.12,15.929a4.124,4.124,0,0,1-4.119,4.119H6.071a4.124,4.124,0,0,1-4.119-4.119V6.071A4.124,4.124,0,0,1,6.071,1.952h9.858a4.124,4.124,0,0,1,4.119,4.119v9.858Z" fill="#42679e"/>
      <path id="Path_10" data-name="Path 10" d="M46.628,40.97a5.66,5.66,0,1,0,5.66,5.66A5.667,5.667,0,0,0,46.628,40.97Zm0,9.371A3.711,3.711,0,1,1,50.34,46.63,3.715,3.715,0,0,1,46.628,50.341Z" transform="translate(-35.628 -35.63)" fill="#42679e"/>
      <path id="Path_11" data-name="Path 11" d="M120.355,28.251a1.433,1.433,0,1,0,1.014.42A1.439,1.439,0,0,0,120.355,28.251Z" transform="translate(-103.45 -24.576)" fill="#42679e"/>
    </g>
  </g>
</svg>
