<svg id="location" xmlns="http://www.w3.org/2000/svg" width="32" height="32" viewBox="0 0 32 32">
  <path id="Path_1" data-name="Path 1" d="M0,0H32V32H0Z" fill="none"/>
  <path id="Path_2" data-name="Path 2" d="M14.457,15.228a2.646,2.646,0,1,1,2.614-2.646A2.638,2.638,0,0,1,14.457,15.228ZM22.3,12.847a7.85,7.85,0,1,0-15.685,0c0,3.1,2.549,7.2,7.842,12.091C19.75,20.043,22.3,15.943,22.3,12.847ZM14.457,2A10.462,10.462,0,0,1,24.913,12.847q0,6.588-10.457,15.609Q4.007,19.428,4,12.847A10.462,10.462,0,0,1,14.457,2Z" transform="translate(1.544 0.772)" fill="#42679e"/>
</svg>
