<svg id="person" xmlns="http://www.w3.org/2000/svg" width="32" height="32" viewBox="0 0 32 32">
  <path id="Path_3" data-name="Path 3" d="M0,0H32V32H0Z" fill="none"/>
  <path id="Path_4" data-name="Path 4" d="M14.662,6.665A2.665,2.665,0,1,1,12,9.331a2.673,2.673,0,0,1,2.665-2.665m0,13.327c3.6,0,7.73,1.719,8,2.665H6.665c.307-.96,4.411-2.665,8-2.665M14.662,4a5.331,5.331,0,1,0,5.331,5.331A5.329,5.329,0,0,0,14.662,4Zm0,13.327C11.1,17.327,4,19.113,4,22.658v2.665H25.323V22.658C25.323,19.113,18.22,17.327,14.662,17.327Z" transform="translate(1.338 1.338)" fill="#42679e"/>
</svg>
