<svg xmlns="http://www.w3.org/2000/svg" width="32" height="32" viewBox="0 0 32 32">
  <g id="Group_3" data-name="Group 3" transform="translate(514 -14)">
    <rect id="Rectangle_9" data-name="Rectangle 9" width="32" height="32" transform="translate(-514 14)" fill="none"/>
    <path id="skateboarding_FILL0_wght400_GRAD0_opsz48" d="M17.459,5.491a1.64,1.64,0,0,0,1.212-.514,1.694,1.694,0,0,0,.506-1.232,1.694,1.694,0,0,0-.506-1.232,1.685,1.685,0,0,0-2.424,0,1.694,1.694,0,0,0-.506,1.232,1.694,1.694,0,0,0,.506,1.232A1.64,1.64,0,0,0,17.459,5.491ZM10,24a.56.56,0,0,1-.412-.179.584.584,0,0,1,0-.837.562.562,0,0,1,.824,0,.584.584,0,0,1,0,.837A.56.56,0,0,1,10,24Zm8,0a.56.56,0,0,1-.412-.179.584.584,0,0,1,0-.837.562.562,0,0,1,.824,0,.584.584,0,0,1,0,.837A.56.56,0,0,1,18,24ZM9.529,21.848a4.467,4.467,0,0,1-1.941-.454A3.559,3.559,0,0,1,6.094,20.1a.608.608,0,0,1-.071-.143A.458.458,0,0,1,6,19.815a.484.484,0,0,1,.129-.335.437.437,0,0,1,.341-.143.537.537,0,0,1,.224.048.3.3,0,0,1,.153.143,2.247,2.247,0,0,0,.906.849,4.931,4.931,0,0,0,1.212.466l3.106-3.826-1.412-4.065a1.258,1.258,0,0,1-.059-.646,2.184,2.184,0,0,1,.247-.622L13.435,7.5H10.659L8.941,10.322l-1.2-.741L9.906,6.065h5.224a1.259,1.259,0,0,1,.882.311,1.857,1.857,0,0,1,.459.574L16.965,8.1a4.65,4.65,0,0,0,1.518,1.913,4.2,4.2,0,0,0,2.341.837v1.435A5.305,5.305,0,0,1,18,11.374,7.192,7.192,0,0,1,15.859,9.15l-2,3.252L18,15.3v5.6h.706a2.776,2.776,0,0,0,1.388-.359,3.052,3.052,0,0,0,1.059-1,.469.469,0,0,1,.165-.143.461.461,0,0,1,.212-.048.448.448,0,0,1,.329.143.462.462,0,0,1,.118.478.607.607,0,0,1-.071.143,3.738,3.738,0,0,1-3.2,1.746Zm1.247-.957h5.812V16.348L12.565,13.5l1.176,3.754Z" transform="translate(-512.072 17.238)" fill="#42679e"/>
  </g>
</svg>
